<svg xmlns:dc="http://purl.org/dc/elements/1.1/" xmlns:cc="http://creativecommons.org/ns#" xmlns:rdf="http://www.w3.org/1999/02/22-rdf-syntax-ns#" xmlns:svg="http://www.w3.org/2000/svg" xmlns="http://www.w3.org/2000/svg" xmlns:sodipodi="http://sodipodi.sourceforge.net/DTD/sodipodi-0.dtd" xmlns:inkscape="http://www.inkscape.org/namespaces/inkscape" sodipodi:docname="2H.svg" inkscape:version="0.48.1 r9760" version="1.1" height="312" width="223"><rect id="backgroundrect" width="100%" height="100%" x="0" y="0" fill="none" stroke="none"/>
  <sodipodi:namedview id="base" pagecolor="#ffffff" bordercolor="#666666" borderopacity="1.0" inkscape:pageopacity="0.0" inkscape:pageshadow="2" inkscape:zoom="0.98994948" inkscape:cx="248.48484" inkscape:cy="492.08587" inkscape:document-units="px" inkscape:current-layer="layer1" showgrid="false" inkscape:snap-global="true" inkscape:snap-bbox="true" inkscape:snap-page="true" inkscape:window-width="690" inkscape:window-height="925" inkscape:window-x="935" inkscape:window-y="42" inkscape:window-maximized="0"/>
  <defs id="defs4425"/>
  <metadata id="metadata4428">
    <rdf:RDF>
      <cc:Work rdf:about="">
        <dc:format>image/svg+xml</dc:format>
        <dc:type rdf:resource="http://purl.org/dc/dcmitype/StillImage"/>
        <dc:title/>
      </cc:Work>
    </rdf:RDF>
  </metadata>
  
<g class="currentLayer" style=""><title>Layer 1</title><g id="layer1" inkscape:groupmode="layer" inkscape:label="2H" class="">
    <g id="g8900" style="display:inline">
      <g id="g8879">
        <rect y="0" x="0" height="311.81103515625" width="223.2283477783203" id="rect6347" style="fill:#ffffff;fill-opacity:1;stroke:#000000;stroke-width:0.99673343;stroke-miterlimit:4;stroke-opacity:1;stroke-dasharray:none;display:inline" rx="10.629920959472656" ry="10.629920959472656"/>
      </g>
      <g id="g6564">
        <path sodipodi:nodetypes="cccccccc" inkscape:connector-curvature="0" id="path8628" d="m9.079966536068923,60.23157289394226 c-1.5830000000000002,-3.47229 -1.7567000000000006,-9.4054 2.9711,-10.20801 c3.5621,-0.45844 5.0117,1.1983000000000001 5.2999,3.74186 c0.14220000000000008,0.7430200000000003 0.5617000000000003,0.7885 0.6948000000000006,-0.05830000000000003 c0.20440000000000008,-2.6093900000000003 2.7872,-4.1326 4.8064,-3.7499700000000002 c5.5266,0.9454 5.2039,7.02845 3.3985000000000003,11.15554 c-2.7309,5.47946 -5.6006,8.93761 -8.245,14.45186 c-3.0382,-5.74101 -6.5073,-10.405100000000001 -8.9257,-15.33294 z" style="fill:#d40000;fill-opacity:1;display:inline"/>
        <g id="g6555">
          <path sodipodi:nodetypes="cccccccc" inkscape:connector-curvature="0" id="path8650" d="m196.8037665360689,251.5032128939422 c-1.5830000000000002,3.47229 -1.7567000000000006,9.4054 2.9711,10.20801 c3.5621,0.45844 5.0117,-1.1983000000000001 5.2999,-3.74186 c0.14220000000000008,-0.7430200000000003 0.5617000000000003,-0.7885 0.6948000000000006,0.05830000000000003 c0.20440000000000008,2.6093900000000003 2.7872,4.1326 4.8064,3.7499700000000002 c5.5266,-0.9454 5.2039,-7.02845 3.3985000000000003,-11.15554 c-2.7309,-5.47946 -5.6006,-8.93761 -8.245,-14.45186 c-3.0382,5.74101 -6.5073,10.405100000000001 -8.9257,15.33294 z" style="fill:#d40000;fill-opacity:1;display:inline"/>
          <g id="g6548">
            <g style="display:inline" id="g8574">
              <path style="fill:#d40000;fill-opacity:1;display:inline" d="m8.173994207964597,46.63691271883238 l0.16483148332500006,-2.018711497971 c0.5094271286470001,-6.238969489024 1.8743823416129999,-8.346313660403 9.621883544786002,-14.855215401389001 c3.759693236367,-3.158652919819 4.994017617160001,-4.717431893451 5.167820750171,-6.526242916218 c0.4908817051350002,-4.259907865672 -3.3511520073770003,-5.5907828523140015 -5.8549347125320015,-5.6138743130830004 c-3.2421073256230004,-0.029805144930000034 -6.9096454623630015,1.9115635072580002 -5.161076959803,6.413946764108001 l-3.6365287435300004,1.06786716229 c-0.734320494937,-4.2001771509840005 0.01685947592000002,-8.141982833494 3.4253638076320003,-9.892417920888002 c4.5462781066560005,-2.2797022064540005 10.380048155667,-1.3852467964840003 13.323441695436001,2.2067849731 c1.9781885433490003,2.4140963145020002 2.4278849573079997,5.746130880434 1.367785196424,8.355676690780001 c-3.10063825893,6.6715354712 -13.621101764045001,9.606378848181 -14.49071955324,17.319408444339 l11.631141693759,0 l0,-4.295102021655 l3.425725082116,0 l0,7.907064100273001 z" id="path7100" inkscape:connector-curvature="0" sodipodi:nodetypes="csscscccsccccccc" stroke-width="0"/>
              <path sodipodi:nodetypes="csscscccsccccccc" inkscape:connector-curvature="0" id="path7116" d="m214.78232557030765,265.1741963745784 l-0.16483148332500006,2.018711497971 c-0.5094271286470001,6.238969489024 -1.8743823416129999,8.346313660403 -9.621883544786002,14.855215401389001 c-3.759693236367,3.158652919819 -4.994017617160001,4.717431893451 -5.167820750171,6.526242916218 c-0.4908817051350002,4.259907865672 3.3511520073770003,5.5907828523140015 5.8549347125320015,5.6138743130830004 c3.2421073256230004,0.029805144930000034 6.9096454623630015,-1.9115635072580002 5.161076959803,-6.413946764108001 l3.6365287435300004,-1.06786716229 c0.734320494937,4.2001771509840005 -0.01685947592000002,8.141982833494 -3.4253638076320003,9.892417920888002 c-4.5462781066560005,2.2797022064540005 -10.380048155667,1.3852467964840003 -13.323441695436001,-2.2067849731 c-1.9781885433490003,-2.4140963145020002 -2.4278849573079997,-5.746130880434 -1.367785196424,-8.355676690780001 c3.10063825893,-6.6715354712 13.621101764045001,-9.606378848181 14.49071955324,-17.319408444339 l-11.631141693759,0 l0,4.295102021655 l-3.425725082116,0 l0,-7.907064100273001 z" style="fill:#d40000;fill-opacity:1;display:inline" stroke-width="0"/>
            </g>
            <path style="fill:#d40000;fill-opacity:1;display:inline" d="m99.52936653606889,27.965712893942282 c7.144,-0.47440000000000015 10.8684,5.62741 11.5952,10.43645 c0.4334000000000002,0.7638900000000006 0.6707000000000006,0.5486400000000003 0.8369000000000003,-0.04230000000000003 c0.34930000000000033,-6.17414 5.8749,-11.22017 10.9926,-10.53018 c8.328,0.10829000000000008 13.3895,9.3754 11.9664,17.21876 c-1.7385000000000002,9.58159 -6.8997,15.35109 -10.8078,21.29311 c-4.4213000000000005,6.15238 -10.3727,15.0395 -12.2901,19.31683 c0,0 -6.0483,-9.20452 -13.9172,-20.02959 c-5.2618,-7.23851 -9.4731,-15.08233 -9.8651,-21.83538 c-0.4479000000000003,-7.71548 2.7193,-14.63175 11.4891,-15.82765 z" id="path8514" inkscape:connector-curvature="0" sodipodi:nodetypes="ccccsccssc"/>
            <path style="fill:#d40000;fill-opacity:1;display:inline" d="m99.52936653606889,284.26706289394224 c7.144,0.47440000000000015 10.8684,-5.62741 11.5952,-10.43645 c0.4334000000000002,-0.7638900000000006 0.6707000000000006,-0.5486400000000003 0.8369000000000003,0.04230000000000003 c0.34930000000000033,6.17414 5.8749,11.22017 10.9926,10.53018 c8.328,-0.10829000000000008 13.3895,-9.3754 11.9664,-17.21876 c-1.7385000000000002,-9.58159 -6.8997,-15.35109 -10.8078,-21.29311 c-4.4213000000000005,-6.15238 -10.3727,-15.0395 -12.2901,-19.31683 c0,0 -6.0483,9.20452 -13.9172,20.02959 c-5.2618,7.23851 -9.4731,15.08233 -9.8651,21.83538 c-0.4479000000000003,7.71548 2.7193,14.63175 11.4891,15.82765 z" id="path8580" inkscape:connector-curvature="0" sodipodi:nodetypes="ccccsccssc"/>
          </g>
        </g>
      </g>
    </g>
  </g></g></svg>