<svg xmlns:dc="http://purl.org/dc/elements/1.1/" xmlns:cc="http://creativecommons.org/ns#" xmlns:rdf="http://www.w3.org/1999/02/22-rdf-syntax-ns#" xmlns:svg="http://www.w3.org/2000/svg" xmlns="http://www.w3.org/2000/svg" xmlns:sodipodi="http://sodipodi.sourceforge.net/DTD/sodipodi-0.dtd" xmlns:inkscape="http://www.inkscape.org/namespaces/inkscape" width="223" height="312" version="1.1" inkscape:version="0.48.1 r9760" sodipodi:docname="3H.svg"><rect id="backgroundrect" width="100%" height="100%" x="0" y="0" fill="none" stroke="none"/>
  <sodipodi:namedview id="base" pagecolor="#ffffff" bordercolor="#666666" borderopacity="1.0" inkscape:pageopacity="0.0" inkscape:pageshadow="2" inkscape:zoom="0.98994948" inkscape:cx="190.96525" inkscape:cy="436.29345" inkscape:document-units="px" inkscape:current-layer="layer1" showgrid="false" inkscape:snap-global="true" inkscape:snap-bbox="true" inkscape:snap-page="true" inkscape:window-width="735" inkscape:window-height="925" inkscape:window-x="1078" inkscape:window-y="117" inkscape:window-maximized="0"/>
  <defs id="defs4425"/>
  <metadata id="metadata4428">
    <rdf:RDF>
      <cc:Work rdf:about="">
        <dc:format>image/svg+xml</dc:format>
        <dc:type rdf:resource="http://purl.org/dc/dcmitype/StillImage"/>
        <dc:title/>
      </cc:Work>
    </rdf:RDF>
  </metadata>
  
<g class="currentLayer" style=""><title>Layer 1</title><g id="layer1" inkscape:groupmode="layer" inkscape:label="3H" sodipodi:insensitive="true" class="">
    <g id="g8912" style="display:inline">
      <g id="g8784">
        <g id="g8890">
          <rect ry="10.629920959472656" rx="10.629920959472656" style="fill:#ffffff;fill-opacity:1;stroke:#000000;stroke-width:0.99673343;stroke-miterlimit:4;stroke-opacity:1;stroke-dasharray:none;display:inline" id="rect6351" width="223.2283477783203" height="311.81103515625" x="0" y="0"/>
          <g id="g8582">
            <path style="fill:#d40000;fill-opacity:1;display:inline" d="m8.449146043720248,39.213407386889685 l2.547195855649,-1.839970947012 c2.213950250366,3.533746152832 4.685278464375,5.863033282215 8.465293390467,5.462379879459 c5.673605027771001,-0.38156606751800015 8.022912784809002,-6.220123003442 6.835283131073001,-10.622945033743001 c-1.146805637044,-3.94481630321 -5.845722213190001,-5.869325479478 -9.578380075671001,-3.7627339632740004 c-0.880185067852,0.49675241550000027 -1.8982565637639999,1.1101663831250002 -1.8982565637639999,1.1101663831250002 l-1.3287976583590002,-2.1659007439940003 l8.763736220458,-10.194894982617 l-9.510400260265001,0 l0,4.219625760706 l-3.6494142001260004,0 l0,-7.564937163925001 l18.589258149392002,0 l0,2.5676379702020005 c0,0 -4.9790849384880005,5.0688616477620005 -6.627219134496,7.847393597999 c4.055035127037,0.14746020188600012 7.322792941024001,2.668764719515 8.492298658146,6.658258633913 c0.6863613071860001,2.0984026279 0.37783289785000007,6.901065193368 -0.5167429369480002,8.967976728746 c-1.493689354098,3.4511949332380003 -5.584039061946,6.249867935958 -9.321634342375,6.411568373755001 c-6.270550900167,0.4141710896990002 -9.601802704717,-3.9020052768560003 -11.262220233180999,-7.093624493340001 z" id="path7102" inkscape:connector-curvature="0" sodipodi:nodetypes="ccccscccccccccccscc" stroke-width="0"/>
            <path sodipodi:nodetypes="ccccscccccccccccscc" inkscape:connector-curvature="0" id="path7118" d="m214.7793261595907,272.5974465998579 l-2.547195855649,1.839970947012 c-2.213950250366,-3.533746152832 -4.685278464375,-5.863033282215 -8.465293390467,-5.462379879459 c-5.673605027771001,0.38156606751800015 -8.022912784809002,6.220123003442 -6.835283131073001,10.622945033743001 c1.146805637044,3.94481630321 5.845722213190001,5.869325479478 9.578380075671001,3.7627339632740004 c0.880185067852,-0.49675241550000027 1.8982565637639999,-1.01608448625 1.8982565637639999,-1.01608448625 l1.5734105902339999,2.034186088369 l-9.008349152333,10.232527741367 l9.510400260265001,0 l0,-4.219625760706 l3.6494142001260004,0 l0,7.564937163925001 l-18.589258149392002,0 l0,-2.5676379702020005 c0,0 4.9790849384880005,-5.0688616477620005 6.627219134496,-7.847393597999 c-4.055035127037,-0.14746020188600012 -7.322792941024001,-2.668764719515 -8.492298658146,-6.658258633913 c-0.6863613071860001,-2.0984026279 -0.37783289785000007,-6.901065193368 0.5167429369480002,-8.967976728746 c1.493689354098,-3.4511949332380003 5.584039061946,-6.249867935958 9.321634342375,-6.411568373755001 c6.270550900167,-0.4141710896990002 9.601802704717,3.9020052768560003 11.262220233180999,7.093624493340001 z" style="fill:#d40000;fill-opacity:1;display:inline" stroke-width="0"/>
          </g>
        </g>
      </g>
      <path style="fill:#d40000;fill-opacity:1;display:inline" d="m9.74297343750004,60.66446757812503 c-1.5830000000000002,-3.47229 -1.7567000000000004,-9.4054 2.9711,-10.20801 c3.5621,-0.45844 5.0117,1.1983000000000001 5.2999,3.74186 c0.14220000000000005,0.7430200000000002 0.5617000000000002,0.7885 0.6948000000000004,-0.05830000000000002 c0.20440000000000005,-2.6093900000000003 2.7872,-4.1326 4.8064,-3.7499700000000002 c5.5266,0.9454 5.2039,7.02845 3.3985000000000003,11.15554 c-2.7309,5.47946 -5.6006,8.93761 -8.245,14.45186 c-3.0382,-5.74101 -6.5073,-10.405100000000001 -8.9257,-15.33294 z" id="path8630" inkscape:connector-curvature="0" sodipodi:nodetypes="cccccccc"/>
      <path sodipodi:nodetypes="ccccsccssc" inkscape:connector-curvature="0" id="path8516" d="m99.50117343750003,28.737037578125012 c7.144,-0.4744000000000001 10.8684,5.62741 11.5952,10.43645 c0.4334000000000001,0.7638900000000004 0.6707000000000004,0.5486400000000002 0.8369000000000002,-0.04230000000000002 c0.3493000000000002,-6.17414 5.8749,-11.22017 10.9926,-10.53018 c8.328,0.10829000000000005 13.3895,9.3754 11.9664,17.21876 c-1.7385000000000002,9.58159 -6.8997,15.35109 -10.8078,21.29311 c-4.4213000000000005,6.15238 -10.3727,15.0395 -12.2901,19.31683 c0,0 -6.0483,-9.20452 -13.9172,-20.02959 c-5.2618,-7.23851 -9.4731,-15.08233 -9.8651,-21.83538 c-0.4479000000000002,-7.71548 2.7193,-14.63175 11.4891,-15.82765 z" style="fill:#d40000;fill-opacity:1;display:inline"/>
      <path sodipodi:nodetypes="ccccsccssc" inkscape:connector-curvature="0" id="path8518" d="m99.56457343750003,127.15887757812499 c7.144,-0.4744000000000001 10.8684,5.62741 11.5952,10.43645 c0.4334000000000001,0.7638900000000004 0.6707000000000004,0.5486400000000002 0.8369000000000002,-0.04230000000000002 c0.3493000000000002,-6.17414 5.8749,-11.22017 10.9926,-10.53018 c8.328,0.10829000000000005 13.3895,9.3754 11.9664,17.21876 c-1.7385000000000002,9.58159 -6.8997,15.35109 -10.8078,21.29311 c-4.4213000000000005,6.15238 -10.3727,15.0395 -12.2901,19.31683 c0,0 -6.0483,-9.20452 -13.9172,-20.02959 c-5.2618,-7.23851 -9.4731,-15.08233 -9.8651,-21.83538 c-0.4479000000000002,-7.71548 2.7193,-14.63175 11.4891,-15.82765 z" style="fill:#d40000;fill-opacity:1;display:inline"/>
      <path sodipodi:nodetypes="cccccccc" inkscape:connector-curvature="0" id="path8652" d="m196.72977343749994,251.87643757812498 c-1.5830000000000002,3.47229 -1.7567000000000004,9.4054 2.9711,10.20801 c3.5621,0.45844 5.0117,-1.1983000000000001 5.2999,-3.74186 c0.14220000000000005,-0.7430200000000002 0.5617000000000002,-0.7885 0.6948000000000004,0.05830000000000002 c0.20440000000000005,2.6093900000000003 2.7872,4.1326 4.8064,3.7499700000000002 c5.5266,-0.9454 5.2039,-7.02845 3.3985000000000003,-11.15554 c-2.7309,-5.47946 -5.6006,-8.93761 -8.245,-14.45186 c-3.0382,5.74101 -6.5073,10.405100000000001 -8.9257,15.33294 z" style="fill:#d40000;fill-opacity:1;display:inline"/>
      <path sodipodi:nodetypes="ccccsccssc" inkscape:connector-curvature="0" id="path8582" d="m99.50117343750003,283.333377578125 c7.144,0.4744000000000001 10.8684,-5.62741 11.5952,-10.43645 c0.4334000000000001,-0.7638900000000004 0.6707000000000004,-0.5486400000000002 0.8369000000000002,0.04230000000000002 c0.3493000000000002,6.17414 5.8749,11.22017 10.9926,10.53018 c8.328,-0.10829000000000005 13.3895,-9.3754 11.9664,-17.21876 c-1.7385000000000002,-9.58159 -6.8997,-15.35109 -10.8078,-21.29311 c-4.4213000000000005,-6.15238 -10.3727,-15.0395 -12.2901,-19.31683 c0,0 -6.0483,9.20452 -13.9172,20.02959 c-5.2618,7.23851 -9.4731,15.08233 -9.8651,21.83538 c-0.4479000000000002,7.71548 2.7193,14.63175 11.4891,15.82765 z" style="fill:#d40000;fill-opacity:1;display:inline"/>
    </g>
  </g></g></svg>