<svg xmlns:dc="http://purl.org/dc/elements/1.1/" xmlns:cc="http://creativecommons.org/ns#" xmlns:rdf="http://www.w3.org/1999/02/22-rdf-syntax-ns#" xmlns:svg="http://www.w3.org/2000/svg" xmlns="http://www.w3.org/2000/svg" xmlns:sodipodi="http://sodipodi.sourceforge.net/DTD/sodipodi-0.dtd" xmlns:inkscape="http://www.inkscape.org/namespaces/inkscape" width="223" height="312" version="1.1" inkscape:version="0.48.1 r9760" sodipodi:docname="4H.svg"><rect id="backgroundrect" width="100%" height="100%" x="0" y="0" fill="none" stroke="none"/>
  <sodipodi:namedview id="base" pagecolor="#ffffff" bordercolor="#666666" borderopacity="1.0" inkscape:pageopacity="0.0" inkscape:pageshadow="2" inkscape:zoom="0.98994948" inkscape:cx="249.10806" inkscape:cy="483.12663" inkscape:document-units="px" inkscape:current-layer="layer1" showgrid="false" inkscape:snap-global="true" inkscape:snap-bbox="true" inkscape:snap-page="true" inkscape:window-width="735" inkscape:window-height="925" inkscape:window-x="577" inkscape:window-y="44" inkscape:window-maximized="0"/>
  <defs id="defs4425"/>
  <metadata id="metadata4428">
    <rdf:RDF>
      <cc:Work rdf:about="">
        <dc:format>image/svg+xml</dc:format>
        <dc:type rdf:resource="http://purl.org/dc/dcmitype/StillImage"/>
        <dc:title/>
      </cc:Work>
    </rdf:RDF>
  </metadata>
  
<g class="currentLayer" style=""><title>Layer 1</title><g id="layer1" inkscape:groupmode="layer" inkscape:label="4H" class="">
    <g id="g8925" style="display:inline">
      <g id="g8796">
        <g id="g8902">
          <rect ry="10.629920959472656" rx="10.629920959472656" style="fill:#ffffff;fill-opacity:1;stroke:#000000;stroke-width:0.99673343;stroke-miterlimit:4;stroke-opacity:1;stroke-dasharray:none;display:inline" id="rect6353" width="223.2283477783203" height="311.81103515625" x="0" y="0"/>
          <g id="g8591">
            <path style="fill:#d40000;fill-opacity:1;display:inline" d="m17.83566458372934,46.37369220015967 l0,-2.813093875873 l2.585009251641,0 l0,-4.6360548159300015 l-12.925046258205,0 l0,-3.2710393905500004 l13.985085806675,-21.098219122151 l2.2852718547490003,0.007827613820000008 l0,21.090391508331 l3.9535169970329997,0 l0,3.2710393905500004 l-3.9535169970329997,0 l-0.07604827888200001,4.6360548159300015 l2.166864142618,0 l0,2.813093875873 zm2.585009251641,-24.097008082800002 l-8.879193524303,13.376820000447001 l8.879193524303,0 z" id="path7104" inkscape:connector-curvature="0" sodipodi:nodetypes="cccccccccccccccccccc" stroke-width="0"/>
            <path sodipodi:nodetypes="cccccccccccccccccccc" inkscape:connector-curvature="0" id="path7159" d="m205.3927279440586,265.43729256668007 l0,2.813093875873 l-2.585009251641,0 l0,4.6360548159300015 l12.925046258205,0 l0,3.2710393905500004 l-13.985085806675,21.098219122151 l-2.2852718547490003,-0.007827613820000008 l0,-21.090391508331 l-3.9535169970329997,0 l0,-3.2710393905500004 l3.9535169970329997,0 l0.07604827888200001,-4.6360548159300015 l-2.166864142618,0 l0,-2.813093875873 zm-2.585009251641,24.097008082800002 l8.879193524303,-13.376820000447001 l-8.879193524303,0 z" style="fill:#d40000;fill-opacity:1;display:inline" stroke-width="0"/>
          </g>
        </g>
      </g>
      <path style="fill:#d40000;fill-opacity:1;display:inline" d="m8.75624609374995,60.99482757812501 c-1.5830000000000002,-3.47229 -1.7567000000000004,-9.4054 2.9711,-10.20801 c3.5621,-0.45844 5.0117,1.1983000000000001 5.2999,3.74186 c0.14220000000000005,0.7430200000000002 0.5617000000000002,0.7885 0.6948000000000004,-0.05830000000000002 c0.20440000000000005,-2.6093900000000003 2.7872,-4.1326 4.8064,-3.7499700000000002 c5.5266,0.9454 5.2039,7.02845 3.3985000000000003,11.15554 c-2.7309,5.47946 -5.6006,8.93761 -8.245,14.45186 c-3.0382,-5.74101 -6.5073,-10.405100000000001 -8.9257,-15.33294 z" id="path8638" inkscape:connector-curvature="0" sodipodi:nodetypes="cccccccc"/>
      <path sodipodi:nodetypes="ccccsccssc" inkscape:connector-curvature="0" id="path8520" d="m44.99744609375011,26.064327578125017 c7.144,-0.4744000000000001 10.8684,5.62741 11.5952,10.43645 c0.4334000000000001,0.7638900000000004 0.6707000000000004,0.5486400000000002 0.8369000000000002,-0.04230000000000002 c0.3493000000000002,-6.17414 5.8749,-11.22017 10.9926,-10.53018 c8.328,0.10829000000000005 13.3895,9.3754 11.9664,17.21876 c-1.7385000000000002,9.58159 -6.8997,15.35109 -10.8078,21.29311 c-4.4213000000000005,6.15238 -10.3727,15.0395 -12.2901,19.31683 c0,0 -6.0483,-9.20452 -13.9172,-20.02959 c-5.2618,-7.23851 -9.4731,-15.08233 -9.8651,-21.83538 c-0.4479000000000002,-7.71548 2.7193,-14.63175 11.4891,-15.82765 z" style="fill:#d40000;fill-opacity:1;display:inline"/>
      <path sodipodi:nodetypes="ccccsccssc" inkscape:connector-curvature="0" id="path8522" d="m154.53024609375007,26.064327578125017 c7.144,-0.4744000000000001 10.8684,5.62741 11.5952,10.43645 c0.4334000000000001,0.7638900000000004 0.6707000000000004,0.5486400000000002 0.8369000000000002,-0.04230000000000002 c0.3493000000000002,-6.17414 5.8749,-11.22017 10.9926,-10.53018 c8.328,0.10829000000000005 13.3895,9.3754 11.9664,17.21876 c-1.7385000000000002,9.58159 -6.8997,15.35109 -10.8078,21.29311 c-4.4213000000000005,6.15238 -10.3727,15.0395 -12.2901,19.31683 c0,0 -6.0483,-9.20452 -13.9172,-20.02959 c-5.2618,-7.23851 -9.4731,-15.08233 -9.8651,-21.83538 c-0.4479000000000002,-7.71548 2.7193,-14.63175 11.4891,-15.82765 z" style="fill:#d40000;fill-opacity:1;display:inline"/>
      <path sodipodi:nodetypes="ccccsccssc" inkscape:connector-curvature="0" id="path8584" d="m44.99744609375011,282.404697578125 c7.144,0.4744000000000001 10.8684,-5.62741 11.5952,-10.43645 c0.4334000000000001,-0.7638900000000004 0.6707000000000004,-0.5486400000000002 0.8369000000000002,0.04230000000000002 c0.3493000000000002,6.17414 5.8749,11.22017 10.9926,10.53018 c8.328,-0.10829000000000005 13.3895,-9.3754 11.9664,-17.21876 c-1.7385000000000002,-9.58159 -6.8997,-15.35109 -10.8078,-21.29311 c-4.4213000000000005,-6.15238 -10.3727,-15.0395 -12.2901,-19.31683 c0,0 -6.0483,9.20452 -13.9172,20.02959 c-5.2618,7.23851 -9.4731,15.08233 -9.8651,21.83538 c-0.4479000000000002,7.71548 2.7193,14.63175 11.4891,15.82765 z" style="fill:#d40000;fill-opacity:1;display:inline"/>
      <path sodipodi:nodetypes="ccccsccssc" inkscape:connector-curvature="0" id="path8586" d="m154.53024609375007,282.404697578125 c7.144,0.4744000000000001 10.8684,-5.62741 11.5952,-10.43645 c0.4334000000000001,-0.7638900000000004 0.6707000000000004,-0.5486400000000002 0.8369000000000002,0.04230000000000002 c0.3493000000000002,6.17414 5.8749,11.22017 10.9926,10.53018 c8.328,-0.10829000000000005 13.3895,-9.3754 11.9664,-17.21876 c-1.7385000000000002,-9.58159 -6.8997,-15.35109 -10.8078,-21.29311 c-4.4213000000000005,-6.15238 -10.3727,-15.0395 -12.2901,-19.31683 c0,0 -6.0483,9.20452 -13.9172,20.02959 c-5.2618,7.23851 -9.4731,15.08233 -9.8651,21.83538 c-0.4479000000000002,7.71548 2.7193,14.63175 11.4891,15.82765 z" style="fill:#d40000;fill-opacity:1;display:inline"/>
      <path sodipodi:nodetypes="cccccccc" inkscape:connector-curvature="0" id="path8654" d="m195.97484609374987,251.10741757812502 c-1.5830000000000002,3.47229 -1.7567000000000004,9.4054 2.9711,10.20801 c3.5621,0.45844 5.0117,-1.1983000000000001 5.2999,-3.74186 c0.14220000000000005,-0.7430200000000002 0.5617000000000002,-0.7885 0.6948000000000004,0.05830000000000002 c0.20440000000000005,2.6093900000000003 2.7872,4.1326 4.8064,3.7499700000000002 c5.5266,-0.9454 5.2039,-7.02845 3.3985000000000003,-11.15554 c-2.7309,-5.47946 -5.6006,-8.93761 -8.245,-14.45186 c-3.0382,5.74101 -6.5073,10.405100000000001 -8.9257,15.33294 z" style="fill:#d40000;fill-opacity:1;display:inline"/>
    </g>
  </g></g></svg>