<svg xmlns:dc="http://purl.org/dc/elements/1.1/" xmlns:cc="http://creativecommons.org/ns#" xmlns:rdf="http://www.w3.org/1999/02/22-rdf-syntax-ns#" xmlns:svg="http://www.w3.org/2000/svg" xmlns="http://www.w3.org/2000/svg" xmlns:sodipodi="http://sodipodi.sourceforge.net/DTD/sodipodi-0.dtd" xmlns:inkscape="http://www.inkscape.org/namespaces/inkscape" width="223" height="312" version="1.1" inkscape:version="0.48.1 r9760" sodipodi:docname="5H.svg"><rect id="backgroundrect" width="100%" height="100%" x="0" y="0" fill="none" stroke="none"/>
  <sodipodi:namedview id="base" pagecolor="#ffffff" bordercolor="#666666" borderopacity="1.0" inkscape:pageopacity="0.0" inkscape:pageshadow="2" inkscape:zoom="0.98994948" inkscape:cx="199.26695" inkscape:cy="514.96342" inkscape:document-units="px" inkscape:current-layer="layer1" showgrid="false" inkscape:snap-global="true" inkscape:snap-bbox="true" inkscape:snap-page="true" inkscape:window-width="735" inkscape:window-height="925" inkscape:window-x="578" inkscape:window-y="17" inkscape:window-maximized="0"/>
  <defs id="defs4425"/>
  <metadata id="metadata4428">
    <rdf:RDF>
      <cc:Work rdf:about="">
        <dc:format>image/svg+xml</dc:format>
        <dc:type rdf:resource="http://purl.org/dc/dcmitype/StillImage"/>
        <dc:title/>
      </cc:Work>
    </rdf:RDF>
  </metadata>
  
<g class="currentLayer" style=""><title>Layer 1</title><g id="layer1" inkscape:groupmode="layer" inkscape:label="5H" class="">
    <g id="g8939" style="display:inline">
      <g id="g8809">
        <g id="g8915">
          <rect ry="10.629920959472656" rx="10.629920959472656" style="fill:#ffffff;fill-opacity:1;stroke:#000000;stroke-width:0.99673343;stroke-miterlimit:4;stroke-opacity:1;stroke-dasharray:none;display:inline" id="rect6355" width="223.2283477783203" height="311.81103515625" x="0" y="0"/>
          <g id="g8601">
            <path style="fill:#d40000;fill-opacity:1;display:inline" d="m8.179149768890966,37.537767473759686 l3.220099688306,-0.02829983458000003 c0.6123602503800001,1.9440782108180001 1.9720167709140002,3.9262106672840003 3.8169552420810002,4.473451191923 c5.211866131012,1.2238775269639999 8.567413644611001,-1.6873324775220002 9.672552291167001,-5.046583054582 c1.3401476983979999,-4.0735504443420005 -0.03034705665600001,-9.795475934348001 -3.617531726913,-11.827735225469002 c-2.975637287466,-1.6857970609650001 -7.394957519203,-0.2640314353900001 -9.422038542720001,3.338537506644 l-2.2572128698250005,-1.379797573017 l1.211383451059,-13.421798673705 l14.730545598202001,0 l0,3.1718695446920004 l-11.937743305847,0 l-0.18729071374700015,5.591144126798 c2.565289686056,-1.8020973386060004 6.5180841341210005,-1.784575526132 9.085360829839,-0.5198739824760001 c4.864801776716,2.318900487968 7.1240317624100005,7.592725192986 6.177281870881,13.810530018489 c-1.3104328720890004,6.183242899867 -4.1974073799400005,9.686521571215001 -10.71750862993,10.189987670876 c-7.244637227652,0.06259080435300005 -9.803694928859,-4.918029550692 -9.774853182553,-8.351281184558001 z" id="path7106" inkscape:connector-curvature="0" sodipodi:nodetypes="cccssccccccccccc" stroke-width="0"/>
            <path sodipodi:nodetypes="cccssccccccccccc" inkscape:connector-curvature="0" id="path7122" d="m215.04916428247725,274.273229649968 l-3.220099688306,0.02829983458000003 c-0.6123602503800001,-1.9440782108180001 -1.9720167709140002,-3.9262106672840003 -3.8169552420810002,-4.473451191923 c-5.211866131012,-1.2238775269639999 -8.567413644611001,1.6873324775220002 -9.672552291167001,5.046583054582 c-1.3401476983979999,4.0735504443420005 0.03034705665600001,9.795475934348001 3.617531726913,11.827735225469002 c2.975637287466,1.6857970609650001 7.394957519203,0.2640314353900001 9.422038542720001,-3.338537506644 l2.2572128698250005,1.379797573017 l-1.211383451059,13.421828779912001 l-14.730545598202001,0 l0,-3.1718996508990003 l11.937743305847,0 l0.18729071374700015,-5.591144126798 c-2.565289686056,1.8020973386060004 -6.5180841341210005,1.784575526132 -9.085360829839,0.5198739824760001 c-4.864801776716,-2.318900487968 -7.1240317624100005,-7.592725192986 -6.177281870881,-13.810530018489 c1.3104328720890004,-6.183242899867 4.1974073799400005,-9.686521571215001 10.71750862993,-10.189987670876 c7.244637227652,-0.06259080435300005 9.803694928859,4.918029550692 9.774853182553,8.351281184558001 z" style="fill:#d40000;fill-opacity:1;display:inline" stroke-width="0"/>
          </g>
        </g>
      </g>
      <path style="fill:#d40000;fill-opacity:1;display:inline" d="m9.51183046874985,60.59718757812499 c-1.5830000000000002,-3.47229 -1.7567000000000004,-9.4054 2.9711,-10.20801 c3.5621,-0.45844 5.0117,1.1983000000000001 5.2999,3.74186 c0.14220000000000005,0.7430200000000002 0.5617000000000002,0.7885 0.6948000000000004,-0.05830000000000002 c0.20440000000000005,-2.6093900000000003 2.7872,-4.1326 4.8064,-3.7499700000000002 c5.5266,0.9454 5.2039,7.02845 3.3985000000000003,11.15554 c-2.7309,5.47946 -5.6006,8.93761 -8.245,14.45186 c-3.0382,-5.74101 -6.5073,-10.405100000000001 -8.9257,-15.33294 z" id="path8640" inkscape:connector-curvature="0" sodipodi:nodetypes="cccccccc"/>
      <path sodipodi:nodetypes="ccccsccssc" inkscape:connector-curvature="0" id="path8524" d="m44.05553046875002,27.922127578125014 c7.144,-0.4744000000000001 10.8684,5.62741 11.5952,10.43645 c0.4334000000000001,0.7638900000000004 0.6707000000000004,0.5486400000000002 0.8369000000000002,-0.04230000000000002 c0.3493000000000002,-6.17414 5.8749,-11.22017 10.9926,-10.53018 c8.328,0.10829000000000005 13.3895,9.3754 11.9664,17.21876 c-1.7385000000000002,9.58159 -6.8997,15.35109 -10.8078,21.29311 c-4.4213000000000005,6.15238 -10.3727,15.0395 -12.2901,19.31683 c0,0 -6.0483,-9.20452 -13.9172,-20.02959 c-5.2618,-7.23851 -9.4731,-15.08233 -9.8651,-21.83538 c-0.4479000000000002,-7.71548 2.7193,-14.63175 11.4891,-15.82765 z" style="fill:#d40000;fill-opacity:1;display:inline"/>
      <path sodipodi:nodetypes="ccccsccssc" inkscape:connector-curvature="0" id="path8526" d="m154.7368304687502,27.922127578125014 c7.144,-0.4744000000000001 10.8684,5.62741 11.5952,10.43645 c0.4334000000000001,0.7638900000000004 0.6707000000000004,0.5486400000000002 0.8369000000000002,-0.04230000000000002 c0.3493000000000002,-6.17414 5.8749,-11.22017 10.9926,-10.53018 c8.328,0.10829000000000005 13.3895,9.3754 11.9664,17.21876 c-1.7385000000000002,9.58159 -6.8997,15.35109 -10.8078,21.29311 c-4.4213000000000005,6.15238 -10.3727,15.0395 -12.2901,19.31683 c0,0 -6.0483,-9.20452 -13.9172,-20.02959 c-5.2618,-7.23851 -9.4731,-15.08233 -9.8651,-21.83538 c-0.4479000000000002,-7.71548 2.7193,-14.63175 11.4891,-15.82765 z" style="fill:#d40000;fill-opacity:1;display:inline"/>
      <path sodipodi:nodetypes="ccccsccssc" inkscape:connector-curvature="0" id="path8528" d="m99.56463046874978,127.15887757812499 c7.144,-0.4744000000000001 10.8684,5.62741 11.5952,10.43645 c0.4334000000000001,0.7638900000000004 0.6707000000000004,0.5486400000000002 0.8369000000000002,-0.04230000000000002 c0.3493000000000002,-6.17414 5.8749,-11.22017 10.9926,-10.53018 c8.328,0.10829000000000005 13.3895,9.3754 11.9664,17.21876 c-1.7385000000000002,9.58159 -6.8997,15.35109 -10.8078,21.29311 c-4.4213000000000005,6.15238 -10.3727,15.0395 -12.2901,19.31683 c0,0 -6.0483,-9.20452 -13.9172,-20.02959 c-5.2618,-7.23851 -9.4731,-15.08233 -9.8651,-21.83538 c-0.4479000000000002,-7.71548 2.7193,-14.63175 11.4891,-15.82765 z" style="fill:#d40000;fill-opacity:1;display:inline"/>
      <path sodipodi:nodetypes="ccccsccssc" inkscape:connector-curvature="0" id="path8588" d="m44.05553046875002,282.066907578125 c7.144,0.4744000000000001 10.8684,-5.62741 11.5952,-10.43645 c0.4334000000000001,-0.7638900000000004 0.6707000000000004,-0.5486400000000002 0.8369000000000002,0.04230000000000002 c0.3493000000000002,6.17414 5.8749,11.22017 10.9926,10.53018 c8.328,-0.10829000000000005 13.3895,-9.3754 11.9664,-17.21876 c-1.7385000000000002,-9.58159 -6.8997,-15.35109 -10.8078,-21.29311 c-4.4213000000000005,-6.15238 -10.3727,-15.0395 -12.2901,-19.31683 c0,0 -6.0483,9.20452 -13.9172,20.02959 c-5.2618,7.23851 -9.4731,15.08233 -9.8651,21.83538 c-0.4479000000000002,7.71548 2.7193,14.63175 11.4891,15.82765 z" style="fill:#d40000;fill-opacity:1;display:inline"/>
      <path sodipodi:nodetypes="ccccsccssc" inkscape:connector-curvature="0" id="path8590" d="m154.7368304687502,282.066907578125 c7.144,0.4744000000000001 10.8684,-5.62741 11.5952,-10.43645 c0.4334000000000001,-0.7638900000000004 0.6707000000000004,-0.5486400000000002 0.8369000000000002,0.04230000000000002 c0.3493000000000002,6.17414 5.8749,11.22017 10.9926,10.53018 c8.328,-0.10829000000000005 13.3895,-9.3754 11.9664,-17.21876 c-1.7385000000000002,-9.58159 -6.8997,-15.35109 -10.8078,-21.29311 c-4.4213000000000005,-6.15238 -10.3727,-15.0395 -12.2901,-19.31683 c0,0 -6.0483,9.20452 -13.9172,20.02959 c-5.2618,7.23851 -9.4731,15.08233 -9.8651,21.83538 c-0.4479000000000002,7.71548 2.7193,14.63175 11.4891,15.82765 z" style="fill:#d40000;fill-opacity:1;display:inline"/>
      <path sodipodi:nodetypes="cccccccc" inkscape:connector-curvature="0" id="path8656" d="m196.21953046874978,251.45487757812498 c-1.5830000000000002,3.47229 -1.7567000000000004,9.4054 2.9711,10.20801 c3.5621,0.45844 5.0117,-1.1983000000000001 5.2999,-3.74186 c0.14220000000000005,-0.7430200000000002 0.5617000000000002,-0.7885 0.6948000000000004,0.05830000000000002 c0.20440000000000005,2.6093900000000003 2.7872,4.1326 4.8064,3.7499700000000002 c5.5266,-0.9454 5.2039,-7.02845 3.3985000000000003,-11.15554 c-2.7309,-5.47946 -5.6006,-8.93761 -8.245,-14.45186 c-3.0382,5.74101 -6.5073,10.405100000000001 -8.9257,15.33294 z" style="fill:#d40000;fill-opacity:1;display:inline"/>
    </g>
  </g></g></svg>