<svg xmlns:dc="http://purl.org/dc/elements/1.1/" xmlns:cc="http://creativecommons.org/ns#" xmlns:rdf="http://www.w3.org/1999/02/22-rdf-syntax-ns#" xmlns:svg="http://www.w3.org/2000/svg" xmlns="http://www.w3.org/2000/svg" xmlns:sodipodi="http://sodipodi.sourceforge.net/DTD/sodipodi-0.dtd" xmlns:inkscape="http://www.inkscape.org/namespaces/inkscape" width="223" height="312" version="1.1" inkscape:version="0.48.1 r9760" sodipodi:docname="6H.svg"><rect id="backgroundrect" width="100%" height="100%" x="0" y="0" fill="none" stroke="none"/>
  <sodipodi:namedview id="base" pagecolor="#ffffff" bordercolor="#666666" borderopacity="1.0" inkscape:pageopacity="0.0" inkscape:pageshadow="2" inkscape:zoom="0.49497474" inkscape:cx="40.510903" inkscape:cy="601.70801" inkscape:document-units="px" inkscape:current-layer="layer1" showgrid="false" inkscape:snap-global="true" inkscape:snap-bbox="true" inkscape:snap-page="true" inkscape:window-width="735" inkscape:window-height="925" inkscape:window-x="1105" inkscape:window-y="41" inkscape:window-maximized="0"/>
  <defs id="defs4425"/>
  <metadata id="metadata4428">
    <rdf:RDF>
      <cc:Work rdf:about="">
        <dc:format>image/svg+xml</dc:format>
        <dc:type rdf:resource="http://purl.org/dc/dcmitype/StillImage"/>
        <dc:title/>
      </cc:Work>
    </rdf:RDF>
  </metadata>
  
<g class="currentLayer" style=""><title>Layer 1</title><g id="layer1" inkscape:groupmode="layer" inkscape:label="6h" class="">
    <g id="g8954" style="display:inline">
      <g id="g8823">
        <g id="g8929">
          <rect ry="10.629920959472656" rx="10.629920959472656" style="fill:#ffffff;fill-opacity:1;stroke:#000000;stroke-width:0.99673343;stroke-miterlimit:4;stroke-opacity:1;stroke-dasharray:none;display:inline" id="rect6357" width="223.2283477783203" height="311.81103515625" x="0" y="0"/>
          <g id="g8673">
            <path style="fill:#d40000;fill-opacity:1;display:inline" d="m8.239800393218502,36.00044999620695 c-0.40836059174800016,-2.747221494957 -0.40182754482900007,-9.845301706933 -0.06608312436500004,-11.942500086553002 c1.029120473881,-6.428518168296 3.5321505238610005,-9.368780662537 7.7226334761910005,-10.332510454814 c4.068643132601,-0.9356708073530002 9.788912781221999,0.10588353001900001 11.044100763466,5.482009126423001 l-3.406487215843,0.06292197263000004 c-1.8397903097700001,-3.6333073793810002 -6.495323841629,-2.6621714601820003 -9.115707886495,-1.0821375044080002 c-2.0931641478820002,1.2621425160610003 -3.038559260096,6.519649656885 -2.634052262844,6.8432612759280005 c-0.0030106207000000027,0 3.957039423252,-2.877159884369 7.075741406382001,-2.664941231226001 c6.668253894637001,0.681785163722 9.417462399256,6.355871890805 9.185193012251,11.718750756129001 c-0.21071334279300025,6.449592513196 -2.294935947196,11.602420372281001 -9.361133685959,11.946383787256 c-6.718139879636001,-0.25349426294000016 -9.799720909535,-3.850102175988 -10.444204482784,-10.031237641365 zm16.570426226593003,-1.704974714824 c0.03712095323100001,-4.475377989171 -2.033704389057,-7.822826933087001 -5.949528414926,-8.192440836426 c-3.915793919662,-0.3695837971320001 -7.863530524951,3.381800126103 -7.590196271598002,7.942499105912 c0.27432775818400007,4.576625163312 2.078592743694,8.431815288283001 6.826341587594,8.410439881313 c5.106072919614,-0.02288071732000002 6.686979955391001,-4.976375379858 6.7133830989300005,-8.160498150799 z" id="path7108" inkscape:connector-curvature="0" sodipodi:nodetypes="cssccacccccszsss" stroke-width="0"/>
            <path sodipodi:nodetypes="cssccacccccszsss" inkscape:connector-curvature="0" id="path7161" d="m214.98842668018278,275.8105597428421 c0.40836059174800016,2.747221494957 0.40182754482900007,9.845301706933 0.06608312436500004,11.942500086553002 c-1.029120473881,6.428518168296 -3.5321505238610005,9.368780662537 -7.7226334761910005,10.332510454814 c-4.068643132601,0.9356708073530002 -9.788912781221999,-0.10588353001900001 -11.044100763466,-5.482009126423001 l3.406487215843,-0.06292197263000004 c1.8397903097700001,3.6333073793810002 6.495323841629,2.6621714601820003 9.115707886495,1.0821375044080002 c2.0931641478820002,-1.2621425160610003 3.038559260096,-6.519649656885 2.634052262844,-6.8432612759280005 c0.0030106207000000027,0 -3.957039423252,2.877159884369 -7.075741406382001,2.664941231226001 c-6.668253894637001,-0.681785163722 -9.417462399256,-6.355871890805 -9.185193012251,-11.718750756129001 c0.21071334279300025,-6.449592513196 2.294935947196,-11.602420372281001 9.361133685959,-11.946383787256 c6.718139879636001,0.25349426294000016 9.799720909535,3.850102175988 10.444204482784,10.031237641365 zm-16.570426226593003,1.704974714824 c-0.03712095323100001,4.475377989171 2.033704389057,7.822826933087001 5.949528414926,8.192440836426 c3.915793919662,0.3695837971320001 7.863530524951,-3.381800126103 7.590196271598002,-7.942499105912 c-0.27432775818400007,-4.576625163312 -2.078592743694,-8.431815288283001 -6.826341587594,-8.410439881313 c-5.106072919614,0.02288071732000002 -6.686979955391001,4.976375379858 -6.7133830989300005,8.160498150799 z" style="fill:#d40000;fill-opacity:1;display:inline" stroke-width="0"/>
          </g>
        </g>
      </g>
      <path style="fill:#d40000;fill-opacity:1;display:inline" d="m8.650514843749988,59.37393757812504 c-1.5830000000000002,-3.47229 -1.7567000000000004,-9.4054 2.9711,-10.20801 c3.5621,-0.45844 5.0117,1.1983000000000001 5.2999,3.74186 c0.14220000000000005,0.7430200000000002 0.5617000000000002,0.7885 0.6948000000000004,-0.05830000000000002 c0.20440000000000005,-2.6093900000000003 2.7872,-4.1326 4.8064,-3.7499700000000002 c5.5266,0.9454 5.2039,7.02845 3.3985000000000003,11.15554 c-2.7309,5.47946 -5.6006,8.93761 -8.245,14.45186 c-3.0382,-5.74101 -6.5073,-10.405100000000001 -8.9257,-15.33294 z" id="path8642" inkscape:connector-curvature="0" sodipodi:nodetypes="cccccccc"/>
      <path sodipodi:nodetypes="ccccsccssc" inkscape:connector-curvature="0" id="path8530" d="m43.93851484375,28.362937578125013 c7.144,-0.4744000000000001 10.8684,5.62741 11.5952,10.43645 c0.4334000000000001,0.7638900000000004 0.6707000000000004,0.5486400000000002 0.8369000000000002,-0.04230000000000002 c0.3493000000000002,-6.17414 5.8749,-11.22017 10.9926,-10.53018 c8.328,0.10829000000000005 13.3895,9.3754 11.9664,17.21876 c-1.7385000000000002,9.58159 -6.8997,15.35109 -10.8078,21.29311 c-4.4213000000000005,6.15238 -10.3727,15.0395 -12.2901,19.31683 c0,0 -6.0483,-9.20452 -13.9172,-20.02959 c-5.2618,-7.23851 -9.4731,-15.08233 -9.8651,-21.83538 c-0.4479000000000002,-7.71548 2.7193,-14.63175 11.4891,-15.82765 z" style="fill:#d40000;fill-opacity:1;display:inline"/>
      <path sodipodi:nodetypes="ccccsccssc" inkscape:connector-curvature="0" id="path8532" d="m155.47131484374995,28.362937578125013 c7.144,-0.4744000000000001 10.8684,5.62741 11.5952,10.43645 c0.4334000000000001,0.7638900000000004 0.6707000000000004,0.5486400000000002 0.8369000000000002,-0.04230000000000002 c0.3493000000000002,-6.17414 5.8749,-11.22017 10.9926,-10.53018 c8.328,0.10829000000000005 13.3895,9.3754 11.9664,17.21876 c-1.7385000000000002,9.58159 -6.8997,15.35109 -10.8078,21.29311 c-4.4213000000000005,6.15238 -10.3727,15.0395 -12.2901,19.31683 c0,0 -6.0483,-9.20452 -13.9172,-20.02959 c-5.2618,-7.23851 -9.4731,-15.08233 -9.8651,-21.83538 c-0.4479000000000002,-7.71548 2.7193,-14.63175 11.4891,-15.82765 z" style="fill:#d40000;fill-opacity:1;display:inline"/>
      <path sodipodi:nodetypes="ccccsccssc" inkscape:connector-curvature="0" id="path8534" d="m155.47131484374995,127.25658757812499 c7.144,-0.4744000000000001 10.8684,5.62741 11.5952,10.43645 c0.4334000000000001,0.7638900000000004 0.6707000000000004,0.5486400000000002 0.8369000000000002,-0.04230000000000002 c0.3493000000000002,-6.17414 5.8749,-11.22017 10.9926,-10.53018 c8.328,0.10829000000000005 13.3895,9.3754 11.9664,17.21876 c-1.7385000000000002,9.58159 -6.8997,15.35109 -10.8078,21.29311 c-4.4213000000000005,6.15238 -10.3727,15.0395 -12.2901,19.31683 c0,0 -6.0483,-9.20452 -13.9172,-20.02959 c-5.2618,-7.23851 -9.4731,-15.08233 -9.8651,-21.83538 c-0.4479000000000002,-7.71548 2.7193,-14.63175 11.4891,-15.82765 z" style="fill:#d40000;fill-opacity:1;display:inline"/>
      <path sodipodi:nodetypes="ccccsccssc" inkscape:connector-curvature="0" id="path8536" d="m43.93851484375,127.25658757812499 c7.144,-0.4744000000000001 10.8684,5.62741 11.5952,10.43645 c0.4334000000000001,0.7638900000000004 0.6707000000000004,0.5486400000000002 0.8369000000000002,-0.04230000000000002 c0.3493000000000002,-6.17414 5.8749,-11.22017 10.9926,-10.53018 c8.328,0.10829000000000005 13.3895,9.3754 11.9664,17.21876 c-1.7385000000000002,9.58159 -6.8997,15.35109 -10.8078,21.29311 c-4.4213000000000005,6.15238 -10.3727,15.0395 -12.2901,19.31683 c0,0 -6.0483,-9.20452 -13.9172,-20.02959 c-5.2618,-7.23851 -9.4731,-15.08233 -9.8651,-21.83538 c-0.4479000000000002,-7.71548 2.7193,-14.63175 11.4891,-15.82765 z" style="fill:#d40000;fill-opacity:1;display:inline"/>
      <path sodipodi:nodetypes="ccccsccssc" inkscape:connector-curvature="0" id="path8592" d="m43.93851484375,283.34853757812493 c7.144,0.4744000000000001 10.8684,-5.62741 11.5952,-10.43645 c0.4334000000000001,-0.7638900000000004 0.6707000000000004,-0.5486400000000002 0.8369000000000002,0.04230000000000002 c0.3493000000000002,6.17414 5.8749,11.22017 10.9926,10.53018 c8.328,-0.10829000000000005 13.3895,-9.3754 11.9664,-17.21876 c-1.7385000000000002,-9.58159 -6.8997,-15.35109 -10.8078,-21.29311 c-4.4213000000000005,-6.15238 -10.3727,-15.0395 -12.2901,-19.31683 c0,0 -6.0483,9.20452 -13.9172,20.02959 c-5.2618,7.23851 -9.4731,15.08233 -9.8651,21.83538 c-0.4479000000000002,7.71548 2.7193,14.63175 11.4891,15.82765 z" style="fill:#d40000;fill-opacity:1;display:inline"/>
      <path sodipodi:nodetypes="ccccsccssc" inkscape:connector-curvature="0" id="path8594" d="m155.47131484374995,283.34853757812493 c7.144,0.4744000000000001 10.8684,-5.62741 11.5952,-10.43645 c0.4334000000000001,-0.7638900000000004 0.6707000000000004,-0.5486400000000002 0.8369000000000002,0.04230000000000002 c0.3493000000000002,6.17414 5.8749,11.22017 10.9926,10.53018 c8.328,-0.10829000000000005 13.3895,-9.3754 11.9664,-17.21876 c-1.7385000000000002,-9.58159 -6.8997,-15.35109 -10.8078,-21.29311 c-4.4213000000000005,-6.15238 -10.3727,-15.0395 -12.2901,-19.31683 c0,0 -6.0483,9.20452 -13.9172,20.02959 c-5.2618,7.23851 -9.4731,15.08233 -9.8651,21.83538 c-0.4479000000000002,7.71548 2.7193,14.63175 11.4891,15.82765 z" style="fill:#d40000;fill-opacity:1;display:inline"/>
      <path sodipodi:nodetypes="cccccccc" inkscape:connector-curvature="0" id="path8658" d="m197.46571484375,250.231617578125 c-1.5830000000000002,3.47229 -1.7567000000000004,9.4054 2.9711,10.20801 c3.5621,0.45844 5.0117,-1.1983000000000001 5.2999,-3.74186 c0.14220000000000005,-0.7430200000000002 0.5617000000000002,-0.7885 0.6948000000000004,0.05830000000000002 c0.20440000000000005,2.6093900000000003 2.7872,4.1326 4.8064,3.7499700000000002 c5.5266,-0.9454 5.2039,-7.02845 3.3985000000000003,-11.15554 c-2.7309,-5.47946 -5.6006,-8.93761 -8.245,-14.45186 c-3.0382,5.74101 -6.5073,10.405100000000001 -8.9257,15.33294 z" style="fill:#d40000;fill-opacity:1;display:inline"/>
    </g>
  </g></g></svg>