<svg xmlns:dc="http://purl.org/dc/elements/1.1/" xmlns:cc="http://creativecommons.org/ns#" xmlns:rdf="http://www.w3.org/1999/02/22-rdf-syntax-ns#" xmlns:svg="http://www.w3.org/2000/svg" xmlns="http://www.w3.org/2000/svg" xmlns:sodipodi="http://sodipodi.sourceforge.net/DTD/sodipodi-0.dtd" xmlns:inkscape="http://www.inkscape.org/namespaces/inkscape" width="223" height="312" version="1.1" inkscape:version="0.48.1 r9760" sodipodi:docname="8H.svg"><rect id="backgroundrect" width="100%" height="100%" x="0" y="0" fill="none" stroke="none"/>
  <sodipodi:namedview id="base" pagecolor="#ffffff" bordercolor="#666666" borderopacity="1.0" inkscape:pageopacity="0.0" inkscape:pageshadow="2" inkscape:zoom="0.98994948" inkscape:cx="187.31121" inkscape:cy="375.39925" inkscape:document-units="px" inkscape:current-layer="layer1" showgrid="false" inkscape:snap-global="true" inkscape:snap-bbox="true" inkscape:snap-page="true" inkscape:window-width="735" inkscape:window-height="925" inkscape:window-x="803" inkscape:window-y="66" inkscape:window-maximized="0"/>
  <defs id="defs4425"/>
  <metadata id="metadata4428">
    <rdf:RDF>
      <cc:Work rdf:about="">
        <dc:format>image/svg+xml</dc:format>
        <dc:type rdf:resource="http://purl.org/dc/dcmitype/StillImage"/>
        <dc:title/>
      </cc:Work>
    </rdf:RDF>
  </metadata>
  
<g class="currentLayer" style=""><title>Layer 1</title><g id="layer1" inkscape:groupmode="layer" inkscape:label="8H" class="">
    <g id="g9013" style="display:inline">
      <g id="g8854">
        <g id="g8836">
          <rect ry="10.629920959472656" rx="10.629920959472656" style="fill:#ffffff;fill-opacity:1;stroke:#000000;stroke-width:0.99673343;stroke-miterlimit:4;stroke-opacity:1;stroke-dasharray:none;display:inline" id="rect6361" width="223.2283477783203" height="311.81103515625" x="0" y="-0.00000762939453125"/>
          <g id="g8646">
            <path style="fill:#d40000;fill-opacity:1;display:inline" d="m6.843791657768634,37.550376937712144 c0.160134915033,-4.375395275724 1.7707266709120004,-6.018501735163 4.943619826642,-8.309433556828001 c-2.530637441799,-1.7952030172030002 -3.5976616302930005,-4.436571088348 -3.3821915067940003,-6.6872208050470014 c0.5214997176540002,-5.446875182854 4.8098579489410005,-8.17202882808 9.485050833971,-8.053350160086001 c4.675162778823,0.11867866799400006 8.704547417496,3.763607043277 9.018796006162,7.721820608602001 c0.2733342533530001,3.44324689459 -0.7704479433370001,5.102399962360001 -3.2574012787790005,6.915185004451001 c2.9529372073880005,2.441492962872 4.840355536632,4.049947178054 4.768732870179001,8.360102303209 c-0.07162266645300006,4.310155125155 -3.80572562687,9.439891523471001 -10.314537049235001,9.597377092288001 c-6.508841528572,0.15748556881700007 -11.422174510972,-5.169055104658 -11.262069702146,-9.544480486589 zm18.172588244512003,0.014450979360000006 c0.2792049637180001,-3.9621273722350003 -3.288260140954,-6.635347810386 -7.313279379612,-6.6768943760460004 c-3.92223664796,-0.04049284841500002 -7.4311752862240015,3.246623256673 -7.4318376227780005,6.8038221447580005 c0,3.8209894738190004 4.563589175681001,5.89660170302 7.5109868409809994,5.907620574781999 c3.582277358516,0.013246731080000013 6.993641779893,-2.6221000986650003 7.234130161409,-6.034548343494 zm-1.288003747874,-14.173370025253 c0.07788475750900001,-3.3376042142270004 -3.0568638339520002,-5.729542360377 -6.28858451816,-5.633292816598002 c-2.8753836181560004,0.0856220527080001 -5.921047943104001,2.2407146683890002 -5.922583359661,5.030867614528 c-0.0030106207000000027,3.489941621647 3.4620933801720004,5.232338351772 6.416897172394,5.29809030786 c2.680445927831,0.059640396067000036 5.735413070742,-2.174721862645 5.7942707054269995,-4.69566510579 z" id="path7112" inkscape:connector-curvature="0" sodipodi:nodetypes="zcszsczzzssssssssss" stroke-width="0"/>
            <path sodipodi:nodetypes="zcszsczzzssssssssss" inkscape:connector-curvature="0" id="path7128" d="m216.38461811294655,274.2606372080402 c-0.160134915033,4.375395275724 -1.7707266709120004,6.018501735163 -4.943619826642,8.309433556828001 c2.530637441799,1.7952030172030002 3.5976616302930005,4.436571088348 3.3821915067940003,6.6872208050470014 c-0.5214997176540002,5.446875182854 -4.8098579489410005,8.17202882808 -9.485050833971,8.053350160086001 c-4.675162778823,-0.11867866799400006 -8.704547417496,-3.763607043277 -9.018796006162,-7.721820608602001 c-0.2733342533530001,-3.44324689459 0.7704479433370001,-5.102399962360001 3.2574012787790005,-6.915185004451001 c-2.9529372073880005,-2.441492962872 -4.840355536632,-4.049947178054 -4.768732870179001,-8.360102303209 c0.07162266645300006,-4.310155125155 3.80572562687,-9.439891523471001 10.314537049235001,-9.597377092288001 c6.508841528572,-0.15748556881700007 11.422174510972,5.169055104658 11.262069702146,9.544480486589 zm-18.172588244512003,-0.014450979360000006 c-0.2792049637180001,3.9621273722350003 3.288260140954,6.635347810386 7.313279379612,6.6768943760460004 c3.92223664796,0.04049284841500002 7.4311752862240015,-3.246623256673 7.4318376227780005,-6.8038221447580005 c0,-3.8209894738190004 -4.563589175681001,-5.89660170302 -7.5109868409809994,-5.907620574781999 c-3.582277358516,-0.013246731080000013 -6.993641779893,2.6221000986650003 -7.234130161409,6.034548343494 zm1.288003747874,14.173370025253 c-0.07788475750900001,3.3376042142270004 3.0568638339520002,5.729542360377 6.28858451816,5.633292816598002 c2.8753836181560004,-0.0856220527080001 5.921047943104001,-2.2407146683890002 5.922583359661,-5.030867614528 c0.0030106207000000027,-3.489941621647 -3.4620933801720004,-5.232338351772 -6.416897172394,-5.29809030786 c-2.680445927831,-0.059640396067000036 -5.735413070742,2.174721862645 -5.7942707054269995,4.69566510579 z" style="fill:#d40000;fill-opacity:1;display:inline" stroke-width="0"/>
          </g>
        </g>
      </g>
      <path style="fill:#d40000;fill-opacity:1;display:inline" d="m9.582089062500017,62.910094792480436 c-1.5830000000000002,-3.47229 -1.7567000000000004,-9.4054 2.9711,-10.20801 c3.5621,-0.45844 5.0117,1.1983000000000001 5.2999,3.74186 c0.14220000000000005,0.7430200000000002 0.5617000000000002,0.7885 0.6948000000000004,-0.05830000000000002 c0.20440000000000005,-2.6093900000000003 2.7872,-4.1326 4.8064,-3.7499700000000002 c5.5266,0.9454 5.2039,7.02845 3.3985000000000003,11.15554 c-2.7309,5.47946 -5.6006,8.93761 -8.245,14.45186 c-3.0382,-5.74101 -6.5073,-10.405100000000001 -8.9257,-15.33294 z" id="path8634" inkscape:connector-curvature="0" sodipodi:nodetypes="cccccccc"/>
      <path sodipodi:nodetypes="ccccsccssc" inkscape:connector-curvature="0" id="path8548" d="m44.56048906249998,27.637024792480474 c7.144,-0.4744000000000001 10.8684,5.62741 11.5952,10.43645 c0.4334000000000001,0.7638900000000004 0.6707000000000004,0.5486400000000002 0.8369000000000002,-0.04230000000000002 c0.3493000000000002,-6.17414 5.8749,-11.22017 10.9926,-10.53018 c8.328,0.10829000000000005 13.3895,9.3754 11.9664,17.21876 c-1.7385000000000002,9.58159 -6.8997,15.35109 -10.8078,21.29311 c-4.4213000000000005,6.15238 -10.3727,15.0395 -12.2901,19.31683 c0,0 -6.0483,-9.20452 -13.9172,-20.02959 c-5.2618,-7.23851 -9.4731,-15.08233 -9.8651,-21.83538 c-0.4479000000000002,-7.71548 2.7193,-14.63175 11.4891,-15.82765 z" style="fill:#d40000;fill-opacity:1;display:inline"/>
      <path sodipodi:nodetypes="ccccsccssc" inkscape:connector-curvature="0" id="path8550" d="m154.09328906249993,27.637024792480474 c7.144,-0.4744000000000001 10.8684,5.62741 11.5952,10.43645 c0.4334000000000001,0.7638900000000004 0.6707000000000004,0.5486400000000002 0.8369000000000002,-0.04230000000000002 c0.3493000000000002,-6.17414 5.8749,-11.22017 10.9926,-10.53018 c8.328,0.10829000000000005 13.3895,9.3754 11.9664,17.21876 c-1.7385000000000002,9.58159 -6.8997,15.35109 -10.8078,21.29311 c-4.4213000000000005,6.15238 -10.3727,15.0395 -12.2901,19.31683 c0,0 -6.0483,-9.20452 -13.9172,-20.02959 c-5.2618,-7.23851 -9.4731,-15.08233 -9.8651,-21.83538 c-0.4479000000000002,-7.71548 2.7193,-14.63175 11.4891,-15.82765 z" style="fill:#d40000;fill-opacity:1;display:inline"/>
      <path sodipodi:nodetypes="ccccsccssc" inkscape:connector-curvature="0" id="path8552" d="m98.74368906249993,77.76124479248051 c7.144,-0.4744000000000001 10.8684,5.62741 11.5952,10.43645 c0.4334000000000001,0.7638900000000004 0.6707000000000004,0.5486400000000002 0.8369000000000002,-0.04230000000000002 c0.3493000000000002,-6.17414 5.8749,-11.22017 10.9926,-10.53018 c8.328,0.10829000000000005 13.3895,9.3754 11.9664,17.21876 c-1.7385000000000002,9.58159 -6.8997,15.35109 -10.8078,21.29311 c-4.4213000000000005,6.15238 -10.3727,15.0395 -12.2901,19.31683 c0,0 -6.0483,-9.20452 -13.9172,-20.02959 c-5.2618,-7.23851 -9.4731,-15.08233 -9.8651,-21.83538 c-0.4479000000000002,-7.71548 2.7193,-14.63175 11.4891,-15.82765 z" style="fill:#d40000;fill-opacity:1;display:inline"/>
      <path sodipodi:nodetypes="ccccsccssc" inkscape:connector-curvature="0" id="path8554" d="m44.56048906249998,127.88544479248048 c7.144,-0.4744000000000001 10.8684,5.62741 11.5952,10.43645 c0.4334000000000001,0.7638900000000004 0.6707000000000004,0.5486400000000002 0.8369000000000002,-0.04230000000000002 c0.3493000000000002,-6.17414 5.8749,-11.22017 10.9926,-10.53018 c8.328,0.10829000000000005 13.3895,9.3754 11.9664,17.21876 c-1.7385000000000002,9.58159 -6.8997,15.35109 -10.8078,21.29311 c-4.4213000000000005,6.15238 -10.3727,15.0395 -12.2901,19.31683 c0,0 -6.0483,-9.20452 -13.9172,-20.02959 c-5.2618,-7.23851 -9.4731,-15.08233 -9.8651,-21.83538 c-0.4479000000000002,-7.71548 2.7193,-14.63175 11.4891,-15.82765 z" style="fill:#d40000;fill-opacity:1;display:inline"/>
      <path sodipodi:nodetypes="ccccsccssc" inkscape:connector-curvature="0" id="path8556" d="m154.09328906249993,127.88544479248048 c7.144,-0.4744000000000001 10.8684,5.62741 11.5952,10.43645 c0.4334000000000001,0.7638900000000004 0.6707000000000004,0.5486400000000002 0.8369000000000002,-0.04230000000000002 c0.3493000000000002,-6.17414 5.8749,-11.22017 10.9926,-10.53018 c8.328,0.10829000000000005 13.3895,9.3754 11.9664,17.21876 c-1.7385000000000002,9.58159 -6.8997,15.35109 -10.8078,21.29311 c-4.4213000000000005,6.15238 -10.3727,15.0395 -12.2901,19.31683 c0,0 -6.0483,-9.20452 -13.9172,-20.02959 c-5.2618,-7.23851 -9.4731,-15.08233 -9.8651,-21.83538 c-0.4479000000000002,-7.71548 2.7193,-14.63175 11.4891,-15.82765 z" style="fill:#d40000;fill-opacity:1;display:inline"/>
      <path sodipodi:nodetypes="ccccsccssc" inkscape:connector-curvature="0" id="path8614" d="m154.09328906249993,283.9773847924805 c7.144,0.4744000000000001 10.8684,-5.62741 11.5952,-10.43645 c0.4334000000000001,-0.7638900000000004 0.6707000000000004,-0.5486400000000002 0.8369000000000002,0.04230000000000002 c0.3493000000000002,6.17414 5.8749,11.22017 10.9926,10.53018 c8.328,-0.10829000000000005 13.3895,-9.3754 11.9664,-17.21876 c-1.7385000000000002,-9.58159 -6.8997,-15.35109 -10.8078,-21.29311 c-4.4213000000000005,-6.15238 -10.3727,-15.0395 -12.2901,-19.31683 c0,0 -6.0483,9.20452 -13.9172,20.02959 c-5.2618,7.23851 -9.4731,15.08233 -9.8651,21.83538 c-0.4479000000000002,7.71548 2.7193,14.63175 11.4891,15.82765 z" style="fill:#d40000;fill-opacity:1;display:inline"/>
      <path sodipodi:nodetypes="ccccsccssc" inkscape:connector-curvature="0" id="path8616" d="m98.74368906249993,234.67809479248047 c7.144,0.4744000000000001 10.8684,-5.62741 11.5952,-10.43645 c0.4334000000000001,-0.7638900000000004 0.6707000000000004,-0.5486400000000002 0.8369000000000002,0.04230000000000002 c0.3493000000000002,6.17414 5.8749,11.22017 10.9926,10.53018 c8.328,-0.10829000000000005 13.3895,-9.3754 11.9664,-17.21876 c-1.7385000000000002,-9.58159 -6.8997,-15.35109 -10.8078,-21.29311 c-4.4213000000000005,-6.15238 -10.3727,-15.0395 -12.2901,-19.31683 c0,0 -6.0483,9.20452 -13.9172,20.02959 c-5.2618,7.23851 -9.4731,15.08233 -9.8651,21.83538 c-0.4479000000000002,7.71548 2.7193,14.63175 11.4891,15.82765 z" style="fill:#d40000;fill-opacity:1;display:inline"/>
      <path sodipodi:nodetypes="ccccsccssc" inkscape:connector-curvature="0" id="path8618" d="m44.56048906249998,283.9773847924805 c7.144,0.4744000000000001 10.8684,-5.62741 11.5952,-10.43645 c0.4334000000000001,-0.7638900000000004 0.6707000000000004,-0.5486400000000002 0.8369000000000002,0.04230000000000002 c0.3493000000000002,6.17414 5.8749,11.22017 10.9926,10.53018 c8.328,-0.10829000000000005 13.3895,-9.3754 11.9664,-17.21876 c-1.7385000000000002,-9.58159 -6.8997,-15.35109 -10.8078,-21.29311 c-4.4213000000000005,-6.15238 -10.3727,-15.0395 -12.2901,-19.31683 c0,0 -6.0483,9.20452 -13.9172,20.02959 c-5.2618,7.23851 -9.4731,15.08233 -9.8651,21.83538 c-0.4479000000000002,7.71548 2.7193,14.63175 11.4891,15.82765 z" style="fill:#d40000;fill-opacity:1;display:inline"/>
      <path sodipodi:nodetypes="cccccccc" inkscape:connector-curvature="0" id="path8664" d="m198.39728906250002,253.7677747924805 c-1.5830000000000002,3.47229 -1.7567000000000004,9.4054 2.9711,10.20801 c3.5621,0.45844 5.0117,-1.1983000000000001 5.2999,-3.74186 c0.14220000000000005,-0.7430200000000002 0.5617000000000002,-0.7885 0.6948000000000004,0.05830000000000002 c0.20440000000000005,2.6093900000000003 2.7872,4.1326 4.8064,3.7499700000000002 c5.5266,-0.9454 5.2039,-7.02845 3.3985000000000003,-11.15554 c-2.7309,-5.47946 -5.6006,-8.93761 -8.245,-14.45186 c-3.0382,5.74101 -6.5073,10.405100000000001 -8.9257,15.33294 z" style="fill:#d40000;fill-opacity:1;display:inline"/>
    </g>
  </g></g></svg>