<svg xmlns:dc="http://purl.org/dc/elements/1.1/" xmlns:cc="http://creativecommons.org/ns#" xmlns:rdf="http://www.w3.org/1999/02/22-rdf-syntax-ns#" xmlns:svg="http://www.w3.org/2000/svg" xmlns="http://www.w3.org/2000/svg" xmlns:sodipodi="http://sodipodi.sourceforge.net/DTD/sodipodi-0.dtd" xmlns:inkscape="http://www.inkscape.org/namespaces/inkscape" width="223" height="312" version="1.1" inkscape:version="0.48.1 r9760" sodipodi:docname="9H.svg"><rect id="backgroundrect" width="100%" height="100%" x="0" y="0" fill="none" stroke="none"/>
  <sodipodi:namedview id="base" pagecolor="#ffffff" bordercolor="#666666" borderopacity="1.0" inkscape:pageopacity="0.0" inkscape:pageshadow="2" inkscape:zoom="0.98994948" inkscape:cx="195.21402" inkscape:cy="512.40065" inkscape:document-units="px" inkscape:current-layer="layer1" showgrid="false" inkscape:snap-global="true" inkscape:snap-bbox="true" inkscape:snap-page="true" inkscape:window-width="735" inkscape:window-height="925" inkscape:window-x="976" inkscape:window-y="63" inkscape:window-maximized="0"/>
  <defs id="defs4425"/>
  <metadata id="metadata4428">
    <rdf:RDF>
      <cc:Work rdf:about="">
        <dc:format>image/svg+xml</dc:format>
        <dc:type rdf:resource="http://purl.org/dc/dcmitype/StillImage"/>
        <dc:title/>
      </cc:Work>
    </rdf:RDF>
  </metadata>
  
<g class="currentLayer" style=""><title>Layer 1</title><g id="layer1" inkscape:groupmode="layer" inkscape:label="9H" class="">
    <g id="g8993" style="display:inline">
      <g id="g8871">
        <g id="g8817">
          <rect ry="10.629920959472656" rx="10.629920959472656" style="fill:#ffffff;fill-opacity:1;stroke:#000000;stroke-width:0.99673343;stroke-miterlimit:4;stroke-opacity:1;stroke-dasharray:none;display:inline" id="rect6363" width="223.2283477783203" height="311.81103515625" x="0" y="-0.00000762939453125"/>
          <g id="g8631">
            <g id="g8685" stroke-width="0">
              <path sodipodi:nodetypes="ccsccccscccsssssss" inkscape:connector-curvature="0" id="path7114" d="m8.275743488860826,39.35057851704505 l3.026667308331,-0.9419931108230001 c1.1416875818540002,2.9953568530510006 3.4499003663370003,3.8787933912590007 5.891543860244,3.6889436499170003 c4.3821089598850005,-0.34077215703300007 5.8364796076409995,-5.148522671484 6.165149069460001,-9.399428781263001 c-1.707443423798,1.774128672303 -4.274117995376,2.6756289347110007 -6.45958777392,2.587688704064 c-6.9823218460610015,-0.3693128412690002 -8.769456399788,-5.854513225634 -8.834515913115,-11.601306442622 c-0.1939441854940002,-4.846316565618 1.8476179235900005,-8.355676690780001 5.3483977797570015,-9.963408356994 c1.8521639608469997,-0.8163900152190001 6.094610226459,-0.8165104400469999 7.959388688039001,0.14863434395900005 c4.282096140231,2.216238322098 5.866826664297001,6.048728366991001 5.579372599861,15.19098992806 c0.004515931050000002,7.523751872749001 -1.6245309297200001,16.287277349758 -9.837443986905999,16.474989550403002 c-4.747718737693,0.6441524049720001 -8.352485432838002,-2.9797618378250004 -8.838971631751,-6.185109484701 zm11.887285302915,-8.243741813154001 c1.424806352482,-0.8855439726980002 2.228943141452,-1.7161742238280002 2.8676463229570004,-2.9620292819019998 c0.524269488698,-1.0226476393760002 0.7016552603420001,-1.55317921913 0.5522381550009999,-3.6705186512330004 c-0.3849981751160001,-5.455304920814 -3.299279012716,-8.547694079026 -7.524594846545001,-7.933346818984 c-2.356563352925,0.34263874186700016 -3.6431521090700003,1.6383797849400001 -4.3826809778180005,4.047899955978 c-1.3655874433130002,4.449185589081 0.36548935298000007,9.657318550425 3.6086202896410002,10.856930474547001 c1.462740173302,0.5410386459969999 3.714624244488,0.3846067944250001 4.878771056764001,-0.33893567840600003 z" style="fill:#d40000;fill-opacity:1;display:inline" stroke-width="0"/>
              <path style="fill:#d40000;fill-opacity:1;display:inline" d="m214.31163543130606,272.46031104617396 l-3.026667308331,0.9419931108230001 c-1.1416875818540002,-2.9953568530510006 -3.4499003663370003,-3.8787933912590007 -5.891543860244,-3.6889436499170003 c-4.3821089598850005,0.34077215703300007 -5.8364796076409995,5.148522671484 -6.165149069460001,9.39945888747 c1.707443423798,-1.77415877851 4.274117995376,-2.675659040918 6.45958777392,-2.5877188102710003 c6.9823218460610015,0.3693128412690002 8.769456399788,5.8545433318410005 8.834515913115,11.601336548829002 c0.1939441854940002,4.846316565618 -1.8476179235900005,8.355676690780001 -5.3483977797570015,9.963408356994 c-1.8521639608469997,0.8163900152190001 -6.094610226459,0.8165104400469999 -7.959388688039001,-0.14863434395900005 c-4.282096140231,-2.216238322098 -5.866826664297001,-6.048728366991001 -5.579372599861,-15.19098992806 c-0.004515931050000002,-7.523781978956 1.6245309297200001,-16.287307455965 9.837443986905999,-16.47501965661 c4.747718737693,-0.6441524049720001 8.352485432838002,2.9797618378250004 8.838971631751,6.185109484701 zm-11.887285302915,8.243771919361 c-1.424806352482,0.8855439726980002 -2.228943141452,1.7161742238280002 -2.8676463229570004,2.9620292819019998 c-0.524269488698,1.0226476393760002 -0.7016552603420001,1.55317921913 -0.5522381550009999,3.6705186512330004 c0.3849981751160001,5.455304920814 3.299279012716,8.547694079026 7.524594846545001,7.933346818984 c2.356563352925,-0.34263874186700016 3.6431521090700003,-1.6383797849400001 4.3826809778180005,-4.047899955978 c1.3655874433130002,-4.449185589081 -0.36548935298000007,-9.657318550425 -3.6086202896410002,-10.856930474547001 c-1.462740173302,-0.5410386459969999 -3.714624244488,-0.3846067944250001 -4.878771056764001,0.33893567840600003 z" id="path7130" inkscape:connector-curvature="0" sodipodi:nodetypes="ccsccccscccsssssss" stroke-width="0"/>
            </g>
          </g>
        </g>
      </g>
      <path style="fill:#d40000;fill-opacity:1;display:inline" d="m8.583573437500036,58.32501479248049 c-1.5830000000000002,-3.47229 -1.7567000000000004,-9.4054 2.9711,-10.20801 c3.5621,-0.45844 5.0117,1.1983000000000001 5.2999,3.74186 c0.14220000000000005,0.7430200000000002 0.5617000000000002,0.7885 0.6948000000000004,-0.05830000000000002 c0.20440000000000005,-2.6093900000000003 2.7872,-4.1326 4.8064,-3.7499700000000002 c5.5266,0.9454 5.2039,7.02845 3.3985000000000003,11.15554 c-2.7309,5.47946 -5.6006,8.93761 -8.245,14.45186 c-3.0382,-5.74101 -6.5073,-10.405100000000001 -8.9257,-15.33294 z" id="path8636" inkscape:connector-curvature="0" sodipodi:nodetypes="cccccccc"/>
      <path sodipodi:nodetypes="ccccsccssc" inkscape:connector-curvature="0" id="path8558" d="m44.851973437499964,28.675474792480486 c7.144,-0.4744000000000001 10.8684,5.62741 11.5952,10.43645 c0.4334000000000001,0.7638900000000004 0.6707000000000004,0.5486400000000002 0.8369000000000002,-0.04230000000000002 c0.3493000000000002,-6.17414 5.8749,-11.22017 10.9926,-10.53018 c8.328,0.10829000000000005 13.3895,9.3754 11.9664,17.21876 c-1.7385000000000002,9.58159 -6.8997,15.35109 -10.8078,21.29311 c-4.4213000000000005,6.15238 -10.3727,15.0395 -12.2901,19.31683 c0,0 -6.0483,-9.20452 -13.9172,-20.02959 c-5.2618,-7.23851 -9.4731,-15.08233 -9.8651,-21.83538 c-0.4479000000000002,-7.71548 2.7193,-14.63175 11.4891,-15.82765 z" style="fill:#d40000;fill-opacity:1;display:inline"/>
      <path sodipodi:nodetypes="ccccsccssc" inkscape:connector-curvature="0" id="path8560" d="m154.38467343749994,28.675474792480486 c7.144,-0.4744000000000001 10.8684,5.62741 11.5952,10.43645 c0.4334000000000001,0.7638900000000004 0.6707000000000004,0.5486400000000002 0.8369000000000002,-0.04230000000000002 c0.3493000000000002,-6.17414 5.8749,-11.22017 10.9926,-10.53018 c8.328,0.10829000000000005 13.3895,9.3754 11.9664,17.21876 c-1.7385000000000002,9.58159 -6.8997,15.35109 -10.8078,21.29311 c-4.4213000000000005,6.15238 -10.3727,15.0395 -12.2901,19.31683 c0,0 -6.0483,-9.20452 -13.9172,-20.02959 c-5.2618,-7.23851 -9.4731,-15.08233 -9.8651,-21.83538 c-0.4479000000000002,-7.71548 2.7193,-14.63175 11.4891,-15.82765 z" style="fill:#d40000;fill-opacity:1;display:inline"/>
      <path sodipodi:nodetypes="ccccsccssc" inkscape:connector-curvature="0" id="path8562" d="m154.38467343749994,94.00607479248049 c7.144,-0.4744000000000001 10.8684,5.62741 11.5952,10.43645 c0.4334000000000001,0.7638900000000004 0.6707000000000004,0.5486400000000002 0.8369000000000002,-0.04230000000000002 c0.3493000000000002,-6.17414 5.8749,-11.22017 10.9926,-10.53018 c8.328,0.10829000000000005 13.3895,9.3754 11.9664,17.21876 c-1.7385000000000002,9.58159 -6.8997,15.35109 -10.8078,21.29311 c-4.4213000000000005,6.15238 -10.3727,15.0395 -12.2901,19.31683 c0,0 -6.0483,-9.20452 -13.9172,-20.02959 c-5.2618,-7.23851 -9.4731,-15.08233 -9.8651,-21.83538 c-0.4479000000000002,-7.71548 2.7193,-14.63175 11.4891,-15.82765 z" style="fill:#d40000;fill-opacity:1;display:inline"/>
      <path sodipodi:nodetypes="ccccsccssc" inkscape:connector-curvature="0" id="path8564" d="m99.5646734375,127.15886479248047 c7.144,-0.4744000000000001 10.8684,5.62741 11.5952,10.43645 c0.4334000000000001,0.7638900000000004 0.6707000000000004,0.5486400000000002 0.8369000000000002,-0.04230000000000002 c0.3493000000000002,-6.17414 5.8749,-11.22017 10.9926,-10.53018 c8.328,0.10829000000000005 13.3895,9.3754 11.9664,17.21876 c-1.7385000000000002,9.58159 -6.8997,15.35109 -10.8078,21.29311 c-4.4213000000000005,6.15238 -10.3727,15.0395 -12.2901,19.31683 c0,0 -6.0483,-9.20452 -13.9172,-20.02959 c-5.2618,-7.23851 -9.4731,-15.08233 -9.8651,-21.83538 c-0.4479000000000002,-7.71548 2.7193,-14.63175 11.4891,-15.82765 z" style="fill:#d40000;fill-opacity:1;display:inline"/>
      <path sodipodi:nodetypes="ccccsccssc" inkscape:connector-curvature="0" id="path8566" d="m44.851973437499964,94.00607479248049 c7.144,-0.4744000000000001 10.8684,5.62741 11.5952,10.43645 c0.4334000000000001,0.7638900000000004 0.6707000000000004,0.5486400000000002 0.8369000000000002,-0.04230000000000002 c0.3493000000000002,-6.17414 5.8749,-11.22017 10.9926,-10.53018 c8.328,0.10829000000000005 13.3895,9.3754 11.9664,17.21876 c-1.7385000000000002,9.58159 -6.8997,15.35109 -10.8078,21.29311 c-4.4213000000000005,6.15238 -10.3727,15.0395 -12.2901,19.31683 c0,0 -6.0483,-9.20452 -13.9172,-20.02959 c-5.2618,-7.23851 -9.4731,-15.08233 -9.8651,-21.83538 c-0.4479000000000002,-7.71548 2.7193,-14.63175 11.4891,-15.82765 z" style="fill:#d40000;fill-opacity:1;display:inline"/>
      <path sodipodi:nodetypes="ccccsccssc" inkscape:connector-curvature="0" id="path8606" d="m154.38467343749994,218.3963247924804 c7.144,0.4744000000000001 10.8684,-5.62741 11.5952,-10.43645 c0.4334000000000001,-0.7638900000000004 0.6707000000000004,-0.5486400000000002 0.8369000000000002,0.04230000000000002 c0.3493000000000002,6.17414 5.8749,11.22017 10.9926,10.53018 c8.328,-0.10829000000000005 13.3895,-9.3754 11.9664,-17.21876 c-1.7385000000000002,-9.58159 -6.8997,-15.35109 -10.8078,-21.29311 c-4.4213000000000005,-6.15238 -10.3727,-15.0395 -12.2901,-19.31683 c0,0 -6.0483,9.20452 -13.9172,20.02959 c-5.2618,7.23851 -9.4731,15.08233 -9.8651,21.83538 c-0.4479000000000002,7.71548 2.7193,14.63175 11.4891,15.82765 z" style="fill:#d40000;fill-opacity:1;display:inline"/>
      <path sodipodi:nodetypes="ccccsccssc" inkscape:connector-curvature="0" id="path8608" d="m154.38467343749994,283.50176479248046 c7.144,0.4744000000000001 10.8684,-5.62741 11.5952,-10.43645 c0.4334000000000001,-0.7638900000000004 0.6707000000000004,-0.5486400000000002 0.8369000000000002,0.04230000000000002 c0.3493000000000002,6.17414 5.8749,11.22017 10.9926,10.53018 c8.328,-0.10829000000000005 13.3895,-9.3754 11.9664,-17.21876 c-1.7385000000000002,-9.58159 -6.8997,-15.35109 -10.8078,-21.29311 c-4.4213000000000005,-6.15238 -10.3727,-15.0395 -12.2901,-19.31683 c0,0 -6.0483,9.20452 -13.9172,20.02959 c-5.2618,7.23851 -9.4731,15.08233 -9.8651,21.83538 c-0.4479000000000002,7.71548 2.7193,14.63175 11.4891,15.82765 z" style="fill:#d40000;fill-opacity:1;display:inline"/>
      <path sodipodi:nodetypes="ccccsccssc" inkscape:connector-curvature="0" id="path8610" d="m44.851973437499964,283.50176479248046 c7.144,0.4744000000000001 10.8684,-5.62741 11.5952,-10.43645 c0.4334000000000001,-0.7638900000000004 0.6707000000000004,-0.5486400000000002 0.8369000000000002,0.04230000000000002 c0.3493000000000002,6.17414 5.8749,11.22017 10.9926,10.53018 c8.328,-0.10829000000000005 13.3895,-9.3754 11.9664,-17.21876 c-1.7385000000000002,-9.58159 -6.8997,-15.35109 -10.8078,-21.29311 c-4.4213000000000005,-6.15238 -10.3727,-15.0395 -12.2901,-19.31683 c0,0 -6.0483,9.20452 -13.9172,20.02959 c-5.2618,7.23851 -9.4731,15.08233 -9.8651,21.83538 c-0.4479000000000002,7.71548 2.7193,14.63175 11.4891,15.82765 z" style="fill:#d40000;fill-opacity:1;display:inline"/>
      <path sodipodi:nodetypes="ccccsccssc" inkscape:connector-curvature="0" id="path8612" d="m44.851973437499964,218.3963247924804 c7.144,0.4744000000000001 10.8684,-5.62741 11.5952,-10.43645 c0.4334000000000001,-0.7638900000000004 0.6707000000000004,-0.5486400000000002 0.8369000000000002,0.04230000000000002 c0.3493000000000002,6.17414 5.8749,11.22017 10.9926,10.53018 c8.328,-0.10829000000000005 13.3895,-9.3754 11.9664,-17.21876 c-1.7385000000000002,-9.58159 -6.8997,-15.35109 -10.8078,-21.29311 c-4.4213000000000005,-6.15238 -10.3727,-15.0395 -12.2901,-19.31683 c0,0 -6.0483,9.20452 -13.9172,20.02959 c-5.2618,7.23851 -9.4731,15.08233 -9.8651,21.83538 c-0.4479000000000002,7.71548 2.7193,14.63175 11.4891,15.82765 z" style="fill:#d40000;fill-opacity:1;display:inline"/>
      <path sodipodi:nodetypes="cccccccc" inkscape:connector-curvature="0" id="path8662" d="m197.39877343750004,249.18269479248045 c-1.5830000000000002,3.47229 -1.7567000000000004,9.4054 2.9711,10.20801 c3.5621,0.45844 5.0117,-1.1983000000000001 5.2999,-3.74186 c0.14220000000000005,-0.7430200000000002 0.5617000000000002,-0.7885 0.6948000000000004,0.05830000000000002 c0.20440000000000005,2.6093900000000003 2.7872,4.1326 4.8064,3.7499700000000002 c5.5266,-0.9454 5.2039,-7.02845 3.3985000000000003,-11.15554 c-2.7309,-5.47946 -5.6006,-8.93761 -8.245,-14.45186 c-3.0382,5.74101 -6.5073,10.405100000000001 -8.9257,15.33294 z" style="fill:#d40000;fill-opacity:1;display:inline"/>
    </g>
  </g></g></svg>