<svg xmlns:dc="http://purl.org/dc/elements/1.1/" xmlns:cc="http://creativecommons.org/ns#" xmlns:rdf="http://www.w3.org/1999/02/22-rdf-syntax-ns#" xmlns:svg="http://www.w3.org/2000/svg" xmlns="http://www.w3.org/2000/svg" xmlns:sodipodi="http://sodipodi.sourceforge.net/DTD/sodipodi-0.dtd" xmlns:inkscape="http://www.inkscape.org/namespaces/inkscape" width="223" height="312" version="1.1" inkscape:version="0.48.1 r9760" sodipodi:docname="AH.svg"><rect id="backgroundrect" width="100%" height="100%" x="0" y="0" fill="none" stroke="none"/>
  <sodipodi:namedview id="base" pagecolor="#ffffff" bordercolor="#666666" borderopacity="1.0" inkscape:pageopacity="0.0" inkscape:pageshadow="2" inkscape:zoom="0.98994948" inkscape:cx="238.22195" inkscape:cy="442.43337" inkscape:document-units="px" inkscape:current-layer="layer1" showgrid="false" inkscape:snap-global="true" inkscape:snap-bbox="true" inkscape:snap-page="true" inkscape:window-width="735" inkscape:window-height="925" inkscape:window-x="784" inkscape:window-y="63" inkscape:window-maximized="0"/>
  <defs id="defs4425"/>
  <metadata id="metadata4428">
    <rdf:RDF>
      <cc:Work rdf:about="">
        <dc:format>image/svg+xml</dc:format>
        <dc:type rdf:resource="http://purl.org/dc/dcmitype/StillImage"/>
        <dc:title/>
      </cc:Work>
    </rdf:RDF>
  </metadata>
  
<g class="currentLayer" style=""><title>Layer 1</title><g id="layer1" inkscape:groupmode="layer" inkscape:label="Layer 1" class="">
    <g id="g8889" style="display:inline">
      <g id="g8763">
        <g id="g8869">
          <rect y="0" x="0" height="311.81103515625" width="223.2283477783203" id="rect3232" style="fill:#ffffff;fill-opacity:1;stroke:#000000;stroke-width:0.99673343;stroke-miterlimit:4;stroke-opacity:1;stroke-dasharray:none;display:inline" rx="10.629920959472656" ry="10.629920959472656"/>
          <g id="g8567">
            <path style="fill:#d40000;fill-opacity:1;display:inline" d="m7.235183153155958,46.06573853443683 l0,-2.737075703198 l2.661057530523,0 l5.6642118911870005,-29.271422092304 l3.22286945935,0 l6.24282308352,29.271422092304 l2.147837019794,0 l0,2.737075703198 l-7.317855523076,0 l0,-2.737075703198 l1.97677355162,0 l-0.7876084813270001,-4.485734524379 l-7.385594488826,0 l-0.5702115605800001,4.485734524379 l1.97677355162,0 l0,2.737075703198 zm13.178119034247,-10.416055179239002 l-3.2085389048180004,-15.670310849707 l-3.006736999297,15.670310849707 z" id="path7183" inkscape:connector-curvature="0" sodipodi:nodetypes="ccccccccccccccccccccc" stroke-width="0"/>
            <path sodipodi:nodetypes="ccccccccccccccccccccc" inkscape:connector-curvature="0" id="path7186" d="m215.99309769529827,265.74513125893486 l0,2.737075703198 l-2.661057530523,0 l-5.6642118911870005,29.271422092304 l-3.22286945935,0 l-6.24282308352,-29.271422092304 l-2.147837019794,0 l0,-2.737075703198 l7.317855523076,0 l0,2.737075703198 l-1.97677355162,0 l0.7876084813270001,4.485734524379 l7.385594488826,0 l0.5702115605800001,-4.485734524379 l-1.97677355162,0 l0,-2.737075703198 zm-13.178119034247,10.416055179239002 l3.2085389048180004,15.670310849707 l3.006736999297,-15.670310849707 z" style="fill:#d40000;fill-opacity:1;display:inline" stroke-width="0"/>
          </g>
        </g>
      </g>
      <path style="fill:#d40000;fill-opacity:1;display:inline" d="m8.281404687500071,60.75430757812501 c-1.5830000000000002,-3.47229 -1.7567000000000004,-9.4054 2.9711,-10.20801 c3.5621,-0.45844 5.0117,1.1983000000000001 5.2999,3.74186 c0.14220000000000005,0.7430200000000002 0.5617000000000002,0.7885 0.6948000000000004,-0.05830000000000002 c0.20440000000000005,-2.6093900000000003 2.7872,-4.1326 4.8064,-3.7499700000000002 c5.5266,0.9454 5.2039,7.02845 3.3985000000000003,11.15554 c-2.7309,5.47946 -5.6006,8.93761 -8.245,14.45186 c-3.0382,-5.74101 -6.5073,-10.405100000000001 -8.9257,-15.33294 z" id="path8626" inkscape:connector-curvature="0" sodipodi:nodetypes="cccccccc"/>
      <path sodipodi:nodetypes="ccccsccssc" inkscape:connector-curvature="0" id="path8512" d="m99.56460468749992,127.15887757812499 c7.144,-0.4744000000000001 10.8684,5.62741 11.5952,10.43645 c0.4334000000000001,0.7638900000000004 0.6707000000000004,0.5486400000000002 0.8369000000000002,-0.04230000000000002 c0.3493000000000002,-6.17414 5.8749,-11.22017 10.9926,-10.53018 c8.328,0.10829000000000005 13.3895,9.3754 11.9664,17.21876 c-1.7385000000000002,9.58159 -6.8997,15.35109 -10.8078,21.29311 c-4.4213000000000005,6.15238 -10.3727,15.0395 -12.2901,19.31683 c0,0 -6.0483,-9.20452 -13.9172,-20.02959 c-5.2618,-7.23851 -9.4731,-15.08233 -9.8651,-21.83538 c-0.4479000000000002,-7.71548 2.7193,-14.63175 11.4891,-15.82765 z" style="fill:#d40000;fill-opacity:1;display:inline"/>
      <path sodipodi:nodetypes="cccccccc" inkscape:connector-curvature="0" id="path8648" d="m196.66130468749998,251.44147757812493 c-1.5830000000000002,3.47229 -1.7567000000000004,9.4054 2.9711,10.20801 c3.5621,0.45844 5.0117,-1.1983000000000001 5.2999,-3.74186 c0.14220000000000005,-0.7430200000000002 0.5617000000000002,-0.7885 0.6948000000000004,0.05830000000000002 c0.20440000000000005,2.6093900000000003 2.7872,4.1326 4.8064,3.7499700000000002 c5.5266,-0.9454 5.2039,-7.02845 3.3985000000000003,-11.15554 c-2.7309,-5.47946 -5.6006,-8.93761 -8.245,-14.45186 c-3.0382,5.74101 -6.5073,10.405100000000001 -8.9257,15.33294 z" style="fill:#d40000;fill-opacity:1;display:inline"/>
    </g>
  </g></g></svg>